<svg width="21" height="22" viewBox="0 0 21 22" fill="none" xmlns="http://www.w3.org/2000/svg">
<path d="M7 17.728C7.48325 17.728 7.875 17.3363 7.875 16.853C7.875 16.3698 7.48325 15.978 7 15.978C6.51675 15.978 6.125 16.3698 6.125 16.853C6.125 17.3363 6.51675 17.728 7 17.728Z" stroke="#60676B" stroke-linecap="round" stroke-linejoin="round"/>
<path d="M14.875 17.728C15.3582 17.728 15.75 17.3363 15.75 16.853C15.75 16.3698 15.3582 15.978 14.875 15.978C14.3918 15.978 14 16.3698 14 16.853C14 17.3363 14.3918 17.728 14.875 17.728Z" stroke="#60676B" stroke-linecap="round" stroke-linejoin="round"/>
<path d="M1.75 3.72802H4.45455L6.26659 12.3197C6.32842 12.6151 6.49777 12.8805 6.74499 13.0694C6.99221 13.2582 7.30155 13.3586 7.61886 13.3528H14.1909C14.5082 13.3586 14.8176 13.2582 15.0648 13.0694C15.312 12.8805 15.4814 12.6151 15.5432 12.3197L16.625 6.93627H5.13068" stroke="#60676B" stroke-linecap="round" stroke-linejoin="round"/>
</svg>
