<svg width="14" height="13" viewBox="0 0 14 13" fill="none" xmlns="http://www.w3.org/2000/svg">
<path d="M7.57235 1.20296L6.99796 1.7846L6.42176 1.20243C4.95272 -0.281945 2.57087 -0.281945 1.10181 1.20243C-0.367269 2.6868 -0.367269 5.09345 1.10181 6.57785L6.62752 12.1611C6.83251 12.3682 7.16488 12.3682 7.36987 12.1611L12.8998 6.57679C14.3656 5.08751 14.3681 2.6876 12.8988 1.20296C11.4271 -0.284123 9.0441 -0.284123 7.57235 1.20296ZM12.1554 5.82883L6.99866 11.0361L1.84413 5.82777C0.785024 4.75762 0.785024 3.02262 1.84413 1.95249C2.90323 0.882351 4.62037 0.882351 5.67948 1.95249L6.62948 2.91242C6.83797 3.12306 7.1772 3.11895 7.38058 2.90333L8.3147 1.95301C9.37647 0.88018 11.0947 0.88018 12.1565 1.95301C13.2159 3.0234 13.2141 4.75331 12.1554 5.82883Z" fill="#60676B"/>
</svg>
