<svg width="12" height="15" viewBox="0 0 12 15" fill="none" xmlns="http://www.w3.org/2000/svg">
<path d="M10.2 8.37188C11.1941 8.37188 12 9.17029 12 10.1552V10.58C12 12.7069 9.4737 14.3164 6 14.3164C2.52632 14.3164 0 12.7906 0 10.58V10.1552C0 9.17029 0.80589 8.37188 1.8 8.37188H10.2ZM10.2 9.26356H1.8C1.33218 9.26356 0.94773 9.6172 0.904122 10.0693L0.9 10.1552V10.58C0.9 12.1699 2.93327 13.4247 6 13.4247C8.9556 13.4247 11.0129 12.1735 11.0973 10.676L11.1 10.58V10.1552C11.1 9.69175 10.7431 9.31088 10.2867 9.26767L10.2 9.26356ZM6 0.0495148C7.98822 0.0495148 9.6 1.64639 9.6 3.61624C9.6 5.58609 7.98822 7.18297 6 7.18297C4.01178 7.18297 2.4 5.58609 2.4 3.61624C2.4 1.64639 4.01178 0.0495148 6 0.0495148ZM6 0.941197C4.50882 0.941197 3.3 2.13886 3.3 3.61624C3.3 5.09364 4.50882 6.29129 6 6.29129C7.49118 6.29129 8.7 5.09364 8.7 3.61624C8.7 2.13886 7.49118 0.941197 6 0.941197Z" fill="#60676B"/>
</svg>
