<svg width="56" height="43" viewBox="0 0 56 43" fill="none" xmlns="http://www.w3.org/2000/svg">
<path d="M5.44601 38.2489C5.20617 38.4585 4.96069 38.6638 4.70799 38.8621C4.28723 39.1922 3.84905 39.5077 3.37268 39.7871C3.21453 39.8791 3.05226 39.9675 2.88281 40.0483C3.46706 39.7346 4.28063 39.1795 5.44601 38.2489Z" fill="#8CC7EC"/>
<path d="M5.56554 38.3816L5.55891 38.3871C5.30341 38.6107 5.0617 38.8113 4.82026 39.0007C4.32537 39.3892 3.89471 39.6874 3.465 39.9396C3.29227 40.0398 3.13662 40.1236 2.98912 40.1943C2.97969 40.199 2.97042 40.2032 2.96134 40.2077L2.87902 40.05L2.79639 39.8922C2.80098 39.89 2.8052 39.8874 2.80993 39.8849H2.81024C2.88418 39.8449 2.96103 39.8017 3.04094 39.7546C3.0832 39.7297 3.12655 39.7039 3.17037 39.6772C3.21435 39.6502 3.25878 39.6226 3.30464 39.5935C3.32446 39.5813 3.3444 39.5688 3.36434 39.5558C3.69272 39.3454 4.06372 39.0852 4.48101 38.7719C4.5685 38.7062 4.65834 38.638 4.75006 38.5674C4.93366 38.4264 5.12527 38.2762 5.32602 38.1162L5.33242 38.111L5.44885 38.2461L5.56554 38.3816Z" fill="#60676B"/>
<path d="M5.44897 38.2461L5.448 38.2471C5.44724 38.2478 5.44662 38.2481 5.44599 38.2488C4.28057 39.1794 3.46704 39.7345 2.88275 40.048C2.88244 40.0483 2.88168 40.0483 2.88133 40.0486C2.8807 40.0491 2.87977 40.0497 2.87914 40.05L2.79651 39.8922C2.8011 39.89 2.80532 39.8874 2.80987 39.8849H2.81018C2.88431 39.8449 2.96097 39.8017 3.04093 39.7546C3.08318 39.7297 3.12651 39.7039 3.17049 39.6772C3.21429 39.6502 3.2589 39.6226 3.30476 39.5935C3.32458 39.5813 3.34451 39.5688 3.36446 39.5558C3.69284 39.3454 4.06385 39.0852 4.48113 38.7719C4.56862 38.7062 4.65846 38.638 4.75017 38.5674C4.93365 38.4264 5.12539 38.2762 5.32596 38.1162L5.33255 38.111L5.44897 38.2461Z" fill="#8CC7EC"/>
<path d="M5.44897 38.2461L5.33255 38.111L5.32596 38.1162C5.12539 38.2762 4.93365 38.4264 4.75017 38.5674C4.65846 38.638 4.56862 38.7062 4.48113 38.7719C4.06384 39.0852 3.69284 39.3454 3.36446 39.5558C3.34451 39.5688 3.32458 39.5813 3.30476 39.5935C3.2589 39.6226 3.21429 39.6502 3.17049 39.6772C3.12651 39.7042 3.08318 39.73 3.04093 39.7546C2.96097 39.8017 2.88431 39.8449 2.81018 39.8849H2.80987C2.80532 39.8874 2.8011 39.89 2.79651 39.8922L2.87914 40.05L2.96146 40.2077C2.97055 40.2032 2.97967 40.199 2.98924 40.1943L2.99174 40.1916C3.63462 39.8437 4.47455 39.253 5.55908 38.3871L5.56566 38.3816L5.44897 38.2461Z" fill="#60676B"/>
<path d="M13.1535 26.548C12.7014 27.1461 12.2496 27.7481 11.8091 28.3346L11.4334 28.8362C10.911 29.5345 10.3706 30.2567 9.8364 30.9644C9.24836 31.7432 8.61461 32.5778 7.96296 33.4039C7.19338 34.3783 6.59297 35.1107 6.01593 35.7787C5.655 36.1975 5.32234 36.5714 4.99925 36.9219C4.64826 37.3018 4.29596 37.6722 3.95137 38.0223C3.52432 38.4555 3.18868 38.7745 2.86292 39.0571C2.65091 39.2397 2.46245 39.3887 2.2862 39.5126C2.07699 39.6596 1.88699 39.7672 1.72047 39.8327L1.70542 39.848L1.66237 39.8542L1.65107 39.8582H1.63491C1.57159 39.8704 1.5199 39.9142 1.49889 39.9751C1.46715 40.0674 1.51754 40.1686 1.61167 40.2003C1.67287 40.2206 1.73743 40.2305 1.80925 40.2305C2.0453 40.2305 2.3613 40.1235 2.77451 39.9041L2.78661 39.8925L2.80985 39.8848C2.80531 39.8874 2.80104 39.8901 2.79649 39.8922L2.87913 40.0501L2.96127 40.2077C2.97053 40.2033 2.97966 40.1991 2.98922 40.1941L2.97966 40.2039L2.95338 40.2124C2.47626 40.4668 2.11252 40.5852 1.80925 40.5852C1.69785 40.5852 1.59533 40.5693 1.4959 40.5361C1.21352 40.4416 1.06179 40.1388 1.15742 39.861C1.216 39.6916 1.35407 39.5651 1.52574 39.5191L1.54083 39.5036H1.58539C1.72506 39.449 1.89028 39.3552 2.07637 39.2239C2.24319 39.1067 2.42257 38.9652 2.625 38.7906C2.94337 38.5148 3.27269 38.2017 3.69283 37.7752C4.03431 37.4281 4.38406 37.0607 4.73209 36.6835C5.05268 36.3358 5.38266 35.9645 5.7412 35.5488C6.31479 34.8849 6.91227 34.1561 7.67825 33.1861C8.32767 32.3625 8.96 31.53 9.54692 30.7529C10.0809 30.0458 10.6207 29.3238 11.1431 28.6253L11.519 28.1234C12.0154 27.4622 12.5271 26.7813 13.0361 26.1084L13.1535 26.548Z" fill="#60676B"/>
<path d="M40.8947 18.9203L40.313 20.5848L38.585 25.5316L37.7975 22.1468L37.0834 19.0758C37.8388 18.1642 38.5936 17.2619 39.329 16.3914C40.1946 15.3662 40.9773 14.4506 41.7226 13.5915C42.3332 12.8877 42.9018 12.2386 43.4405 11.632L40.8947 18.9203ZM22.5871 22.2142L21.3832 25.7732L21.0086 24.3639L20.8794 23.8771C21.4471 23.3248 22.0171 22.7699 22.5871 22.2142ZM26.0483 20.9395L27.1553 17.7565C27.5464 17.3755 27.9343 16.9972 28.3199 16.6219L29.3086 20.4869L27.7584 22.6599L26.9047 23.8623L26.0539 25.0671C25.5538 25.779 24.9624 26.6229 24.3656 27.4836C24.0706 27.9081 23.7636 28.3517 23.428 28.8381L26.0483 20.9395ZM37.786 7.58092C38.8727 6.5806 39.8193 5.73313 40.64 5.0247C40.9274 4.77641 41.1991 4.54548 41.4565 4.3312C41.31 4.50714 41.1604 4.68816 41.0139 4.86869C40.8821 5.03056 40.7587 5.18187 40.64 5.32828C40.4453 5.56806 40.2638 5.79342 40.0796 6.0258L39.6182 6.60672C39.4333 6.83935 39.2916 7.01976 39.1589 7.19057L38.2481 8.36051C37.6324 9.15957 37.0279 9.95214 36.4521 10.7165C36.1228 11.1539 35.7892 11.5991 35.4499 12.0535L35.4042 11.8574L35.228 11.1033L35.0124 10.1746C35.9829 9.25522 36.9103 8.38663 37.786 7.58092ZM44.1082 9.28646C43.1418 10.3426 42.1008 11.5154 40.8996 12.9007C40.1416 13.7749 39.3557 14.6939 38.4972 15.7106C37.9411 16.369 37.3653 17.0561 36.7779 17.7613L36.2299 15.407C36.9525 14.3171 37.6841 13.2029 38.4287 12.058C39.018 11.1509 39.5942 10.256 40.0307 9.57739L41.6183 7.09101C41.7953 6.81385 41.972 6.53652 42.1487 6.25905C42.2277 6.13478 42.3073 6.00985 42.3876 5.88418C42.4724 5.90288 42.5544 5.92313 42.6328 5.94539C42.634 5.9457 42.6351 5.94601 42.6364 5.9463C42.6891 5.96024 42.7441 5.97694 42.8019 5.997C43.0577 6.08158 43.28 6.18995 43.4619 6.31886C43.5442 6.37732 43.6225 6.44379 43.6943 6.51645C44.0623 6.88838 44.2487 7.43066 44.2487 8.12739C44.2487 8.42265 44.2016 8.81159 44.1082 9.28646ZM29.1461 27.1407L26.8461 30.0214L26.5582 30.3768L26.417 30.5481C26.4009 30.5674 26.3829 30.5883 26.3645 30.6096L26.2698 30.72C26.0381 30.9904 25.8476 31.2114 25.67 31.4155C25.2656 31.88 24.8552 32.341 24.4512 32.7851C23.5558 33.7681 22.7256 34.631 21.9131 35.4233C21.5714 35.7564 21.2491 36.0614 20.9372 36.3463L21.0493 36.0087C21.6667 35.3168 22.2982 34.5817 22.9789 33.7619C23.5764 33.0433 24.188 32.2858 24.849 31.4458C25.4603 30.6691 26.0699 29.8775 26.6609 29.093C27.2029 28.3753 27.7801 27.5958 28.425 26.7097L28.4556 26.6674C28.7304 26.288 29.015 25.8958 29.2913 25.5084C29.5881 25.094 29.8897 24.6678 30.1484 24.3014C30.182 24.254 30.2151 24.2068 30.2483 24.1603L30.5596 25.3775C30.1175 25.927 29.6494 26.5112 29.1461 27.1407ZM23.3433 19.9778C22.4189 20.88 21.4897 21.7865 20.5635 22.6877L20.1443 21.1083C20.157 21.091 20.1695 21.0737 20.182 21.056C20.4779 20.6458 20.7817 20.2213 21.0849 19.7942L21.5338 19.1617L21.9793 18.527L22.8668 17.2574C23.1051 16.9167 23.3441 16.5684 23.5751 16.2315L24.6219 14.701L25.4865 13.4158L25.6402 13.1864L23.3433 19.9778ZM27.0557 4.71349C27.0527 4.74859 27.0488 4.78382 27.0449 4.8183L27.0413 4.85187C27.0311 4.93872 27.018 5.02899 27.0011 5.12995C26.9859 5.22376 26.9682 5.3161 26.9493 5.40373C26.9327 5.47932 26.9109 5.57932 26.8863 5.67936C26.7945 6.04385 26.6739 6.40685 26.5277 6.75837C26.5087 6.80382 26.4897 6.84895 26.4697 6.89377C26.4537 6.93089 26.4372 6.96783 26.4203 7.00416C26.4196 7.00648 26.4187 7.00832 26.4173 7.01034C26.4127 7.02055 26.4082 7.03059 26.4031 7.04093C26.4028 7.0425 26.4019 7.04421 26.4013 7.04544C26.3977 7.05346 26.3941 7.06152 26.3898 7.06971C26.3799 7.09119 26.3699 7.11253 26.3593 7.13387C26.3494 7.15455 26.3397 7.17483 26.3295 7.19508C26.3196 7.21545 26.3095 7.2357 26.299 7.25612C26.2855 7.28316 26.2717 7.31007 26.2577 7.33666C26.2571 7.33868 26.256 7.34069 26.255 7.34223C26.2445 7.36217 26.2345 7.38211 26.2236 7.40191C26.2213 7.40656 26.2191 7.41133 26.2161 7.4158C26.2086 7.43035 26.2007 7.4449 26.1925 7.45927C26.1925 7.45988 26.1922 7.46063 26.1914 7.46125C26.1896 7.46576 26.1872 7.4701 26.1842 7.47439C26.176 7.49034 26.1673 7.50642 26.1583 7.52202C26.1573 7.52373 26.1564 7.52575 26.1551 7.52741C26.1453 7.54472 26.1354 7.5622 26.1256 7.57969C26.1256 7.58061 26.125 7.58092 26.1244 7.58184C26.1245 7.58214 26.1245 7.58214 26.1241 7.58245C26.1223 7.58618 26.1204 7.58989 26.1177 7.59358C26.1069 7.61308 26.0951 7.63284 26.0837 7.65247C26.0765 7.66531 26.0689 7.67797 26.0611 7.69081C26.0406 7.72543 26.0201 7.7601 25.9992 7.79379C25.7858 8.14067 25.5448 8.46436 25.283 8.75607C25.0053 9.06679 24.6967 9.34829 24.3653 9.59316C24.1949 9.7187 24.0152 9.83632 23.8324 9.94284C23.6427 10.0523 23.4482 10.1508 23.2558 10.2355C23.052 10.3236 22.8465 10.4 22.6453 10.4622C22.4316 10.5276 22.2186 10.581 22.0127 10.6204C21.7955 10.6612 21.5789 10.691 21.3694 10.709C21.1561 10.7267 20.9397 10.7348 20.7264 10.7329C20.515 10.73 20.3009 10.7179 20.0912 10.6974C19.8946 10.6777 19.6913 10.6487 19.4704 10.6093C19.0821 10.538 18.6819 10.4358 18.2811 10.3046C18.2339 10.289 18.187 10.2735 18.1398 10.2574C18.0926 10.2412 18.0455 10.2248 17.9986 10.2081C17.9513 10.1913 17.9042 10.1742 17.8569 10.1568C17.8337 10.148 17.8101 10.1393 17.7866 10.1303C17.763 10.1215 17.7393 10.1124 17.7157 10.1031C17.6747 10.0877 17.6334 10.0716 17.5924 10.0551C17.5649 10.0441 17.5374 10.0333 17.5095 10.0217C17.3889 9.97282 17.2684 9.9215 17.1472 9.86769C17.1409 9.86506 17.1349 9.86213 17.1288 9.85936C17.0924 9.84311 17.0556 9.82676 17.019 9.8099C16.9282 9.76879 16.8367 9.72562 16.7452 9.68111C16.7076 9.66318 16.6699 9.64477 16.6321 9.62607C16.589 9.60477 16.5456 9.58325 16.5024 9.5613C16.3719 9.49548 16.2406 9.42638 16.1082 9.35448L16.0347 9.31412C15.975 9.2812 15.9131 9.24734 15.8538 9.2132L15.1508 8.81063C14.8498 8.63999 14.54 8.47024 14.2299 8.3067C13.926 8.1461 13.6151 7.99133 13.3056 7.84694C12.9929 7.70024 12.6802 7.56637 12.3759 7.44967C12.2238 7.39121 12.0671 7.33452 11.9091 7.28088C11.7609 7.23202 11.6033 7.18348 11.441 7.13802C11.117 7.04728 10.8004 6.97866 10.5018 6.93413C10.1967 6.88638 9.8794 6.86087 9.5588 6.85776C9.40583 6.85666 9.24752 6.86087 9.08653 6.87134C8.93716 6.88186 8.78374 6.89825 8.61693 6.9213C8.58318 6.92607 8.5497 6.9312 8.51595 6.93659C8.50024 6.93922 8.48452 6.94202 8.46916 6.94448C8.46818 6.94448 8.46742 6.94448 8.4668 6.94478C8.43929 6.94943 8.41213 6.95421 8.38448 6.95902C8.38386 6.95933 8.38324 6.95933 8.38261 6.95933C8.34428 6.96643 8.30626 6.97353 8.26828 6.98129C8.22915 6.989 8.1902 6.99707 8.15155 7.00539C8.11246 7.01389 8.07382 7.02256 8.03486 7.03199C8.00473 7.03909 7.97458 7.04605 7.94439 7.05376C7.94078 7.05438 7.93688 7.05547 7.93327 7.0567C7.92271 7.05902 7.91207 7.06183 7.90152 7.06489C7.89791 7.06538 7.8943 7.06599 7.8907 7.0674C7.86087 7.07479 7.83132 7.08282 7.80148 7.09101C7.77197 7.09859 7.74276 7.10709 7.71338 7.11546C7.70928 7.11656 7.70554 7.1173 7.70158 7.11901C7.6917 7.12164 7.68181 7.1244 7.67206 7.12734C7.66217 7.12983 7.65243 7.1329 7.64254 7.13618C7.6259 7.14066 7.60942 7.14574 7.59277 7.15087C7.59117 7.15118 7.58912 7.15148 7.58711 7.15288C7.57345 7.15705 7.55898 7.16138 7.54518 7.16568C7.5312 7.16957 7.51704 7.17387 7.50292 7.179C7.45578 7.19351 7.40885 7.20866 7.36171 7.22523C7.34617 7.23001 7.33077 7.2354 7.31553 7.24083C7.25223 7.26261 7.18896 7.28536 7.12566 7.30932C7.10869 7.31549 7.09156 7.32199 7.07445 7.32878C7.05135 7.33728 7.02811 7.34639 7.00473 7.35569C6.98996 7.36173 6.97536 7.36743 6.96044 7.3736C6.93061 7.38522 6.90061 7.39744 6.87073 7.40993C6.83213 7.42619 6.79331 7.44227 6.75497 7.45897C6.45455 7.58893 6.15096 7.73796 5.85267 7.90198C5.72361 7.97262 5.58332 8.05378 5.41089 8.15797L5.40729 8.15999C5.29452 8.23185 5.14719 8.32743 5.00646 8.43097C4.4971 8.7941 4.02843 9.25662 3.61194 9.80678C3.40963 10.0778 3.2279 10.3607 3.07146 10.6462C2.90735 10.9425 2.76084 11.2509 2.63658 11.5621C2.51138 11.8749 2.39991 12.2015 2.30517 12.5342C2.26042 12.6946 2.21737 12.8634 2.17779 13.0355C2.1392 13.2009 2.10336 13.3728 2.07147 13.5467C2.00741 13.9052 1.95982 14.2544 1.92968 14.5847C1.91097 14.7957 1.89949 14.9578 1.89321 15.1097C1.8896 15.1951 1.886 15.2836 1.88378 15.3725L1.88209 15.5033L1.88284 15.6471C1.88315 15.7451 1.80261 15.8255 1.70284 15.8258C1.61536 15.827 1.54123 15.7658 1.52489 15.682L1.51047 15.6073L1.47481 15.4016C1.45865 15.3 1.44592 15.2107 1.43616 15.129C1.41279 14.9368 1.39583 14.7574 1.3842 14.5807C1.35968 14.2051 1.3542 13.8333 1.36818 13.4752C1.37477 13.2893 1.38621 13.1029 1.40224 12.921C1.41876 12.7405 1.44057 12.5538 1.4676 12.3664C1.52619 11.9651 1.59999 11.6045 1.69295 11.2626C1.74087 11.0823 1.7963 10.8989 1.85755 10.7172C1.9185 10.5342 1.98572 10.3539 2.05781 10.1809C2.20326 9.83031 2.37836 9.48155 2.57723 9.14489C2.78438 8.79858 3.01322 8.47597 3.25871 8.18409C3.38809 8.02674 3.5257 7.87929 3.65558 7.74353C3.77965 7.61878 3.92826 7.47286 4.08987 7.33324C4.24645 7.19477 4.41322 7.06569 4.55489 6.95871L4.60471 6.92161C4.66593 6.87616 4.72656 6.83085 4.78657 6.78743C4.81249 6.76902 4.83808 6.75049 4.864 6.73178C4.91569 6.69484 4.96956 6.65602 5.02387 6.61937C5.11594 6.55584 5.20609 6.4951 5.29452 6.43775C5.32403 6.41829 5.35324 6.39928 5.38245 6.381C5.43458 6.3473 5.48627 6.31484 5.53747 6.28346C5.55647 6.27189 5.57549 6.26028 5.59418 6.2487C5.63782 6.2221 5.68105 6.1963 5.72392 6.17154C5.75188 6.15516 5.77965 6.13894 5.80713 6.12317C5.83495 6.10739 5.8626 6.09193 5.88976 6.0768C5.90814 6.06642 5.92649 6.05639 5.94456 6.04678C5.96972 6.03259 5.99501 6.01896 6.01994 6.00569C6.16993 5.92392 6.33911 5.83934 6.55081 5.73966C6.73142 5.65631 6.91819 5.57717 7.1054 5.50452C7.4767 5.36092 7.86996 5.24266 8.27345 5.15282C8.47103 5.11001 8.67583 5.07351 8.88143 5.04476C9.08858 5.01711 9.29667 4.99717 9.49915 4.98477C9.90892 4.96251 10.3248 4.97106 10.7355 5.01001C11.1189 5.04598 11.5241 5.11185 11.938 5.2051C12.133 5.25023 12.329 5.30063 12.5194 5.35519C12.7134 5.41114 12.9045 5.47096 13.0861 5.53186C13.4426 5.65386 13.7991 5.79079 14.1757 5.95113C14.5061 6.09258 14.8456 6.24994 15.2147 6.43187C15.5824 6.61229 15.9414 6.80351 16.2127 6.94991C16.3674 7.03339 16.5332 7.12379 16.7008 7.21871L16.7922 7.26976L16.9295 7.34639C16.9799 7.3747 17.0308 7.40222 17.0812 7.42926C17.105 7.44197 17.1288 7.45445 17.1539 7.46839C17.8055 7.81264 18.3991 8.06942 18.9694 8.2532C19.1116 8.29864 19.261 8.34285 19.4275 8.38803C19.5949 8.43286 19.7602 8.4684 19.8853 8.49482C20.0349 8.52545 20.1883 8.55156 20.3403 8.57199C20.493 8.59315 20.645 8.60831 20.7915 8.6165C20.9447 8.62637 21.0949 8.62961 21.2376 8.62637C21.3947 8.6236 21.5382 8.61479 21.6764 8.59933C21.8302 8.58324 21.9719 8.56116 22.1082 8.53285C22.2606 8.50257 22.3995 8.46778 22.5326 8.42663C23.0881 8.25863 23.6276 7.97775 24.1362 7.59156C24.19 7.55095 24.2437 7.50905 24.2971 7.46545C24.3053 7.45897 24.3131 7.45244 24.321 7.44595C24.3457 7.42619 24.3702 7.40577 24.3952 7.38473C24.4076 7.37453 24.42 7.36388 24.4325 7.35323C24.4449 7.34284 24.457 7.33219 24.4694 7.32119C24.4803 7.31225 24.4911 7.30297 24.502 7.29324C24.5183 7.27899 24.5345 7.26493 24.5508 7.24995C24.5668 7.2357 24.583 7.2212 24.5993 7.20651C24.6807 7.1329 24.7616 7.05639 24.8418 6.97633C24.852 6.96643 24.8621 6.9564 24.8723 6.94601C24.8933 6.92546 24.9139 6.90442 24.9347 6.88357C24.9634 6.85403 24.9923 6.82455 25.0208 6.79422C25.0466 6.767 25.0722 6.73997 25.0978 6.71215C25.1063 6.70316 25.1142 6.69453 25.122 6.68572C25.1421 6.66452 25.1614 6.64317 25.1808 6.62157C25.201 6.59931 25.2211 6.57705 25.2407 6.55448C25.2613 6.53156 25.2816 6.50839 25.302 6.4849C25.3273 6.45567 25.3524 6.42648 25.3777 6.39664C25.4022 6.36802 25.4269 6.33867 25.4511 6.30896C25.4796 6.27482 25.5078 6.24034 25.536 6.20541C25.746 5.94477 25.9525 5.66451 26.1489 5.3728C26.1986 5.30001 26.2472 5.22841 26.296 5.15252L26.4363 4.93162C26.4691 4.87903 26.5015 4.82571 26.534 4.77238L26.6752 4.53571C26.6835 4.52151 26.692 4.50714 26.6992 4.496L26.7303 4.45008C26.7864 4.36661 26.9007 4.34418 26.9855 4.39921C27.0407 4.4351 27.0717 4.49767 27.0675 4.56279L27.0557 4.71349ZM25.3914 9.59378L24.4531 10.8218L20.7071 15.7346L19.2306 17.6706L18.9438 16.5919L17.2853 10.35C17.285 10.3488 17.2847 10.3474 17.2844 10.346C17.2808 10.3335 17.2772 10.321 17.2733 10.3087C17.5725 10.4337 17.8695 10.5437 18.1673 10.6412C18.5839 10.7773 19.0002 10.8843 19.4052 10.958C19.6362 10.9997 19.8486 11.0296 20.0551 11.0506C20.2753 11.0718 20.4996 11.0846 20.7221 11.0877C20.9472 11.0897 21.1754 11.0812 21.4002 11.0625C21.6224 11.0435 21.8511 11.012 22.0812 10.9687C22.3001 10.9268 22.526 10.8704 22.7531 10.801C22.9671 10.7345 23.1855 10.6535 23.4021 10.5596C23.6072 10.4694 23.8134 10.3652 24.0149 10.2489C24.21 10.1355 24.4003 10.0102 24.5816 9.87715C24.9326 9.61726 25.2597 9.31938 25.5538 8.99073C25.7867 8.73087 26.0044 8.44675 26.2013 8.14483C26.2279 8.23791 26.2541 8.33466 26.28 8.43483L25.3914 9.59378ZM55.5526 3.06314C55.5507 2.94286 55.5369 2.83187 55.5113 2.72473C55.4802 2.59458 55.4326 2.47369 55.3692 2.36531C55.296 2.24245 55.202 2.13286 55.0975 2.04859C54.9935 1.96432 54.8732 1.89509 54.7494 1.84808C54.5491 1.77156 54.3384 1.73804 54.0857 1.74098C53.9081 1.74422 53.7277 1.7663 53.5171 1.81143C53.2087 1.87962 52.8972 1.98444 52.5361 2.14149C52.2583 2.26252 51.9704 2.408 51.6568 2.58578C51.4179 2.72196 51.1757 2.87069 50.9269 3.03343H44.241C44.2979 2.95057 44.3543 2.8699 44.4097 2.79182C44.4743 2.70093 44.5429 2.60865 44.615 2.51575C44.6304 2.49503 44.6464 2.4754 44.6615 2.45668L44.7089 2.40059C44.7149 2.39345 44.7201 2.38745 44.7251 2.38232C44.7834 2.36935 44.8394 2.34709 44.8902 2.3165C45.1443 2.16283 45.2245 1.83448 45.0689 1.58437C44.9462 1.38774 44.746 1.26373 44.5044 1.23516C44.1 1.1874 43.4612 1.33608 41.3526 3.03343H40.8082C40.7154 3.03343 40.64 3.10736 40.64 3.19872V3.61935C39.7093 4.39921 38.5439 5.4274 37.0746 6.77893C36.3309 7.46296 35.5495 8.1926 34.7355 8.96058C34.7033 8.7921 34.6778 8.61865 34.6593 8.44289C34.6299 8.16696 34.6149 7.85934 34.6149 7.52803C34.6149 6.90968 34.7819 6.47995 35.1255 6.21453C35.4796 5.94184 36.1044 5.78199 36.9824 5.73886C37.0716 5.7344 37.142 5.66187 37.142 5.57375V3.19872C37.142 3.10736 37.0665 3.03343 36.9739 3.03343H32.3485C32.4815 2.87437 32.6048 2.73616 32.7225 2.61282C32.8066 2.52534 32.8866 2.44897 32.961 2.38482C32.9963 2.35419 33.0331 2.325 33.0672 2.30055C33.0868 2.28635 33.1071 2.27444 33.1223 2.26545C33.1314 2.26006 33.1389 2.25511 33.1452 2.25125L33.2415 2.1868C33.4215 2.06608 33.509 1.84513 33.4599 1.6366C33.394 1.35572 33.1079 1.17996 32.8217 1.24472C32.6863 1.27565 32.5894 1.31969 32.5077 1.35931C32.4369 1.39454 32.3658 1.43459 32.2846 1.48604C32.1407 1.57709 32.0191 1.6703 31.9188 1.74961C31.6786 1.93991 31.4685 2.13408 31.2948 2.29902C31.122 2.46317 30.9411 2.6445 30.7254 2.8696C30.672 2.92569 30.6202 2.98029 30.5701 3.03343H23.0785C22.9858 3.03343 22.9108 3.10736 22.9108 3.19872V5.57375C22.9108 5.66511 22.9858 5.73886 23.0785 5.73886H23.4394C23.9153 5.73886 24.3289 5.80613 24.6687 5.93829C24.8267 5.99964 24.972 6.07602 25.1035 6.16646C24.7173 6.62188 24.3187 7.00617 23.9166 7.31054C23.4417 7.67074 22.9406 7.93182 22.4258 8.08782C22.3037 8.12551 22.1764 8.15706 22.035 8.1855C21.9095 8.21162 21.7798 8.23155 21.6369 8.24671C21.5093 8.26096 21.3763 8.26897 21.2304 8.27161C21.0974 8.27485 20.9577 8.27161 20.8135 8.26231C20.676 8.25446 20.5337 8.24053 20.3901 8.22029C20.2451 8.20097 20.1004 8.17638 19.9598 8.14746C19.8395 8.12214 19.6808 8.08813 19.5228 8.04575C19.3623 8.00216 19.2177 7.95965 19.0815 7.91605C18.5318 7.73858 17.9569 7.49003 17.3264 7.15674C17.3022 7.14341 17.2778 7.13063 17.2537 7.11761C17.2054 7.0918 17.1575 7.06598 17.1087 7.03829L16.9205 6.93322C17.0334 6.71276 17.1959 6.51798 17.4096 6.34608C17.6014 6.19148 17.8209 6.06642 18.0622 5.97352C18.4181 5.83531 18.8402 5.75648 19.3168 5.73886C19.4066 5.73575 19.4776 5.66371 19.4787 5.57546L19.5013 3.20039C19.502 3.15605 19.4842 3.11385 19.4528 3.0826C19.4212 3.05123 19.3784 3.03343 19.3334 3.03343H4.22022C4.17531 3.03343 4.13244 3.05123 4.101 3.0826C4.06944 3.11385 4.05185 3.15605 4.05247 3.20039L4.07509 5.57546C4.07602 5.66451 4.14842 5.73715 4.23924 5.73886C4.68623 5.74938 5.10054 5.8035 5.4811 5.90056C5.26873 6.02715 5.04947 6.1683 4.81797 6.32767C4.76098 6.3668 4.70537 6.40685 4.65119 6.44545C4.62635 6.46311 4.6011 6.48117 4.57421 6.5005C4.51126 6.54642 4.44969 6.59217 4.3875 6.6387L4.33629 6.67643C4.18848 6.78834 4.01476 6.92252 3.85018 7.06769C3.68085 7.21441 3.5257 7.36681 3.3966 7.49652L3.39441 7.49897C3.25933 7.64029 3.11544 7.7941 2.97943 7.95965C2.72343 8.26451 2.48361 8.60257 2.26625 8.96553C2.05812 9.31705 1.87594 9.6808 1.72421 10.0464C1.64915 10.2271 1.57862 10.4154 1.51519 10.6062C1.45187 10.7946 1.39409 10.9852 1.34462 11.1716C1.24784 11.5264 1.17122 11.9007 1.11058 12.3163C1.0828 12.5102 1.06019 12.7031 1.04304 12.8895C1.0264 13.078 1.01464 13.2709 1.00805 13.4621C0.993268 13.8319 0.998924 14.2157 1.02435 14.6032C1.03663 14.7868 1.0539 14.9726 1.07822 15.1709C1.08828 15.2567 1.10181 15.35 1.11891 15.4579L1.14277 15.6005L1.17091 15.7483C1.21944 15.9992 1.44262 16.1805 1.70253 16.1805H1.70458C2.00269 16.1795 2.24426 15.9394 2.24332 15.6443L2.24266 15.5048L2.24426 15.379C2.24631 15.2948 2.24992 15.208 2.25353 15.1241C2.2593 14.978 2.27048 14.8213 2.28887 14.6161C2.31807 14.2958 2.36425 13.9568 2.42658 13.609C2.45707 13.4413 2.49144 13.2751 2.52946 13.1145C2.5678 12.9471 2.6091 12.7835 2.6526 12.6297C2.74369 12.3089 2.8513 11.9934 2.9719 11.6921C3.09078 11.3944 3.23075 11.0996 3.38876 10.815C3.53733 10.5433 3.71024 10.2744 3.90168 10.0176C4.2956 9.49732 4.73836 9.06031 5.22021 8.71667C5.35324 8.61865 5.49348 8.5276 5.60108 8.45928C5.76818 8.35832 5.90387 8.27966 6.02813 8.21192C6.31649 8.05347 6.61019 7.90926 6.90029 7.78389C7.17356 7.66501 7.44857 7.56404 7.7242 7.48197C8.18391 8.16647 8.5659 9.09479 8.86304 10.256L12.5339 24.041L13.0044 25.8078L13.1217 26.2474C13.2483 26.0795 13.375 25.9121 13.5017 25.7451C14.3262 24.6556 15.174 23.5532 15.994 22.487C16.4129 21.9426 16.8318 21.398 17.2497 20.8526L19.1237 18.4016L19.3469 18.1087L20.9954 15.9474L24.7416 11.0351L25.6793 9.80744L26.3888 8.88175L26.6202 8.57983C26.8027 8.34088 26.9899 8.09798 27.1708 7.86351C27.3015 7.69423 27.4324 7.52448 27.5621 7.3552L28.9789 5.51872L29.9717 4.24387L30.1946 3.98385C30.2984 3.86513 30.3787 3.77408 30.4551 3.68906C30.6144 3.50989 30.7891 3.32159 30.9883 3.11275C31.0142 3.08572 31.0397 3.05925 31.0644 3.03343C31.2429 2.84856 31.3973 2.69476 31.5451 2.55453C31.7133 2.39516 31.9159 2.20779 32.1449 2.02602C32.2376 1.95245 32.3497 1.86647 32.4792 1.7844C32.5508 1.73957 32.6094 1.70618 32.6684 1.67696C32.7336 1.64541 32.8054 1.6128 32.9034 1.59041C32.9951 1.56968 33.0874 1.62608 33.1088 1.7167C33.1245 1.78379 33.0964 1.85473 33.0386 1.89321L32.9442 1.95644L32.9348 1.96218C32.9167 1.97283 32.8866 1.99092 32.8549 2.01379C32.8123 2.04443 32.7667 2.08057 32.7231 2.11844C32.6408 2.18942 32.5527 2.27334 32.4606 2.36935C32.3062 2.53056 32.1446 2.71517 31.9652 2.93423C31.9389 2.96714 31.9119 3.00004 31.885 3.03343C31.6262 3.35608 31.357 3.71378 31.046 4.14927C30.966 4.26131 30.8943 4.3635 30.8258 4.46232L30.7184 4.61858L30.0009 5.7681L29.8092 6.07773L29.3981 6.73318C29.1349 7.15288 28.8525 7.60147 28.5715 8.04019C28.4919 8.16476 28.4126 8.28922 28.3332 8.41384C28.1386 8.71896 27.9373 9.03451 27.7372 9.34259L26.8947 10.64L26.0867 11.8671L26.0433 11.9325L25.6166 12.5775L25.1859 13.2204L24.322 14.5039L23.4485 15.7819L23.2762 16.0332C23.0459 16.3693 22.8071 16.7168 22.57 17.0564L21.6827 18.3257L21.2376 18.9591L20.7897 19.591C20.5337 19.9514 20.277 20.31 20.0249 20.66C19.9791 20.7238 19.9332 20.7877 19.8877 20.8509C19.6031 21.2471 19.3056 21.6574 18.9788 22.1053C17.9 23.5835 16.6122 25.3274 15.2385 27.0517C14.7755 27.6338 14.2954 28.2245 13.8051 28.8139C13.6277 29.0271 13.4489 29.2405 13.2692 29.453C12.872 29.9217 12.4679 30.3896 12.0683 30.844L12.3293 31.0884C12.872 30.579 13.4272 30.0545 13.9926 29.5178C16.1164 27.5014 18.3816 25.3096 20.6688 23.0842C21.4753 22.2997 22.2844 21.5107 23.0911 20.7235C23.5137 20.3109 23.9359 19.8986 24.3568 19.4881L24.3837 19.4622C25.4999 18.3726 26.6015 17.2971 27.6811 16.2461C27.8263 16.1045 27.9711 15.9635 28.1157 15.8233C30.4974 13.5056 32.7631 11.3159 34.8245 9.36762C35.6954 8.54552 36.5296 7.76579 37.3207 7.03799C38.6676 5.79868 39.7568 4.83452 40.64 4.08633C41.1284 3.67282 41.5541 3.32501 41.9258 3.03343C43.5638 1.74838 44.1548 1.55158 44.4615 1.5873C44.5929 1.60321 44.6968 1.66613 44.7614 1.76972C44.8132 1.8532 44.7864 1.96292 44.7014 2.0141C44.6781 2.02834 44.6522 2.03667 44.6248 2.0393L44.568 2.04443L44.4821 2.11616L44.4727 2.12729C44.4683 2.13207 44.4645 2.13641 44.4603 2.14118C44.452 2.1503 44.4432 2.1602 44.432 2.17317L44.3805 2.23456C44.3629 2.25634 44.3437 2.27969 44.3268 2.30226C44.2534 2.39735 44.1817 2.49349 44.1141 2.58884C44.0141 2.72999 43.9112 2.87871 43.8065 3.03343C43.7716 3.0851 43.7366 3.13733 43.7015 3.18987L43.2977 3.80221L42.8991 4.41932C42.6006 4.88215 42.2998 5.35377 42.0055 5.81586C41.9511 5.90117 41.8969 5.98606 41.8432 6.07063C41.6668 6.34778 41.4903 6.62512 41.3133 6.90228L39.726 9.38805C39.2897 10.0662 38.7139 10.9603 38.125 11.8667C37.4462 12.9106 36.7784 13.9287 36.1181 14.9261C34.567 17.2693 33.0577 19.4987 31.5475 21.6771C31.2656 22.085 30.9796 22.4939 30.7025 22.8897C30.5209 23.1499 30.3325 23.419 30.1316 23.7038C30.0411 23.8319 29.9485 23.9632 29.8526 24.0984C29.5938 24.4648 29.2932 24.8902 28.9964 25.3042C28.7207 25.691 28.4369 26.0826 28.1622 26.4613L28.1317 26.5034C27.4881 27.3874 26.9122 28.1653 26.3711 28.8815C25.7818 29.6642 25.1739 30.4538 24.5638 31.2287C23.9048 32.0658 23.2953 32.821 22.6997 33.5372C22.2255 34.1088 21.7752 34.6388 21.3367 35.1418C21.1429 35.3639 20.9515 35.5807 20.7614 35.7935C20.1165 36.5165 19.5141 37.1597 18.9259 37.7517C18.8542 37.8238 18.7828 37.8956 18.7115 37.9666C18.4256 38.2468 18.191 38.4708 17.972 38.6714L18.1903 38.9517C18.5688 38.7197 18.9678 38.4427 19.4096 38.1046C19.5571 37.9913 19.7061 37.8739 19.8572 37.7517C20.1322 37.5291 20.4146 37.2901 20.7107 37.0294C20.7477 36.9973 20.7846 36.9643 20.822 36.9311C21.2491 36.5517 21.689 36.141 22.1668 35.6756C22.9844 34.8781 23.8192 34.0104 24.7196 33.0221C25.1257 32.5758 25.5376 32.113 25.9438 31.6461C26.122 31.4416 26.3132 31.2199 26.5451 30.9488L26.6392 30.8395C26.6595 30.8161 26.6796 30.793 26.6962 30.7725L26.7677 30.6867L27.1289 30.2412L29.4292 27.3601C29.8677 26.8116 30.2799 26.2978 30.6708 25.811C31.0441 25.3461 31.3984 24.9059 31.7389 24.4838C33.4405 22.3756 34.9675 20.5058 36.4072 18.7688C36.5652 18.5777 36.7229 18.3877 36.8798 18.199C37.5275 17.4197 38.163 16.6613 38.7744 15.9374C39.6318 14.9219 40.4169 14.0038 41.174 13.131C42.1978 11.9503 43.105 10.9241 43.9483 9.99354C44.7149 9.14733 45.4293 8.38028 46.1311 7.648C47.0684 6.67845 47.9481 5.8418 48.8201 5.09086C49.3348 4.64933 49.8099 4.26797 50.2734 3.92512C50.7405 3.5793 51.176 3.28575 51.5976 3.03343C51.6778 2.98506 51.7577 2.93821 51.8371 2.89308C52.1395 2.72149 52.4158 2.58192 52.6819 2.46579C53.0208 2.31834 53.3112 2.22063 53.5947 2.15787C53.7808 2.11844 53.9388 2.09837 54.0912 2.09574C54.2961 2.09262 54.4636 2.11922 54.6192 2.17861C54.7075 2.2126 54.7937 2.26221 54.8686 2.32282C54.9407 2.38096 55.0064 2.45778 55.0574 2.54371C55.1026 2.62118 55.1375 2.70931 55.1605 2.80606C55.1804 2.88862 55.1904 2.97455 55.1922 3.06902V3.06933C55.1948 3.22515 55.1751 3.38342 55.1303 3.56865C55.1126 3.64222 55.0906 3.71825 55.0627 3.8019C55.0378 3.87609 55.0097 3.95186 54.9784 4.02758C54.8686 4.29597 54.729 4.56323 54.5393 4.86808C54.2398 5.34576 53.8652 5.83084 53.3948 6.35085C53.3287 6.42417 53.2141 6.43065 53.1402 6.3654C53.104 6.33416 53.0829 6.29059 53.0802 6.24314C53.0772 6.19765 53.092 6.1541 53.1215 6.11931L53.1264 6.11405C53.583 5.60964 53.9443 5.14125 54.2322 4.68228C54.4088 4.39847 54.5435 4.14089 54.6439 3.8959C54.7031 3.7509 54.749 3.61252 54.7799 3.4847C54.8169 3.33413 54.8342 3.1967 54.8315 3.07813C54.8306 2.93962 54.8009 2.8164 54.7455 2.72196L54.7438 2.71934C54.6849 2.6221 54.6032 2.55545 54.4859 2.50865C54.3806 2.46768 54.2464 2.44787 54.0987 2.45068C53.9732 2.45221 53.8297 2.47061 53.6728 2.50444C53.4161 2.56058 53.1399 2.65409 52.8278 2.79029C52.6407 2.87222 52.448 2.96605 52.2434 3.0755C52.1697 3.11508 52.0943 3.15635 52.0169 3.20039C51.5342 3.47571 51.0348 3.80576 50.4904 4.20864C50.0358 4.54483 49.5671 4.92049 49.0571 5.35812C48.1946 6.10121 47.3227 6.93028 46.3913 7.89318C45.5446 8.7768 44.6814 9.70924 43.7311 10.7685C43.0273 11.5529 42.2757 12.4066 41.4482 13.3612C40.702 14.2213 39.9183 15.138 39.0518 16.1645C38.373 16.9677 37.678 17.798 36.9814 18.6374C36.8831 18.7558 36.7848 18.8745 36.6865 18.9932C35.2533 20.7223 33.7273 22.5906 32.0213 24.7046C31.6177 25.2048 31.2034 25.7196 30.7815 26.2452C30.4299 26.6836 30.073 27.1294 29.7127 27.5801L27.4116 30.4612L27.1206 30.8216L27.0479 30.9106L26.8211 31.1777C26.5841 31.4543 26.3922 31.6766 26.2176 31.8771C25.8132 32.3419 25.3997 32.8067 24.9883 33.2588C24.0828 34.2527 23.2428 35.1255 22.4204 35.9275C21.9427 36.3933 21.4988 36.8074 21.0636 37.1942C20.5551 37.6459 20.0864 38.0355 19.6314 38.3845C19.0548 38.8252 18.5602 39.1584 18.0749 39.4333C17.7705 39.605 17.4892 39.7401 17.2163 39.8462C16.8517 39.9856 16.5574 40.0574 16.2624 40.0794C16.2144 40.0828 16.1674 40.0681 16.1312 40.0372C16.0944 40.0061 16.0724 39.9633 16.0688 39.9162C16.066 39.8808 16.0741 39.8455 16.0917 39.8149L16.1153 39.7735V39.7369C16.1209 39.698 16.139 39.6623 16.1665 39.6353L16.1767 39.6249C16.3278 39.4756 16.4844 39.3031 16.6554 39.0987C16.8016 38.9271 16.9436 38.7458 17.0812 38.5707L17.1107 38.5326C17.2986 38.2898 17.4925 38.0316 17.6977 37.7517C17.7899 37.6258 17.8842 37.4958 17.9811 37.3607C18.2395 37.0045 18.4964 36.6377 18.7444 36.2829L18.828 36.1636C19.1142 35.7552 19.3983 35.3438 19.6651 34.9571L22.9904 30.1061C23.0012 30.0904 23.0121 30.0744 23.0232 30.0588C23.6524 29.1429 24.1745 28.3871 24.6636 27.6835C25.2597 26.8235 25.8506 25.9804 26.3502 25.269L27.2002 24.0651L28.0537 22.8636L29.425 20.9412L29.7667 20.462C31.9588 17.3996 33.8305 14.8284 35.5564 12.511C35.9585 11.9703 36.3532 11.4439 36.7419 10.9277C37.3167 10.1644 37.9205 9.37319 38.5349 8.57585L39.4451 7.40608C39.5772 7.23606 39.718 7.0567 39.9022 6.82515L40.3637 6.2445C40.4991 6.074 40.6329 5.90705 40.7717 5.73514C40.936 5.53186 41.1071 5.32149 41.2955 5.09051C41.618 4.69293 41.9547 4.29255 42.245 3.94831C42.3978 3.76649 42.557 3.58316 42.711 3.40586L42.7298 3.38453C42.795 3.30968 42.8602 3.23475 42.9261 3.16069L43.0384 3.03343L44.064 1.87437L42.6816 2.9022C42.6238 2.94501 42.5655 2.98892 42.5069 3.03343C42.3752 3.13347 42.2411 3.23672 42.1067 3.34276C41.6717 3.68534 41.1845 4.08774 40.64 4.55333C39.762 5.30479 38.7352 6.22181 37.5399 7.32199C36.71 8.0858 35.8336 8.90541 34.9183 9.77125C32.8545 11.7238 30.5924 13.9114 28.2177 16.2226C27.9524 16.4803 27.6863 16.7397 27.4186 17.0009C26.5032 17.8926 25.5731 18.8011 24.6323 19.719L24.6243 19.7271C24.0306 20.3065 23.4347 20.888 22.8387 21.4693C22.1501 22.1412 21.4608 22.8129 20.7743 23.4807C18.4823 25.7103 16.219 27.8986 14.0974 29.9117C12.6268 31.3068 11.2244 32.6174 9.92825 33.7987C8.07493 35.4878 6.51862 36.8368 5.30346 37.8082L5.30079 37.8104L5.41717 37.9455L5.53386 38.0809L5.53622 38.0794C6.75702 37.1033 8.31681 35.751 10.1731 34.0591C11.4283 32.9148 12.7825 31.6502 14.202 30.3049L14.4858 31.372L15.9463 37.6281C15.9656 37.7007 16.0325 37.7517 16.1085 37.7517H17.2519C17.1044 37.9506 16.9629 38.1381 16.8246 38.3168L16.7957 38.3539C16.6604 38.5264 16.5205 38.7048 16.3782 38.8723C16.2133 39.0688 16.0639 39.2332 15.9213 39.3745L15.9108 39.3846C15.8322 39.4626 15.7798 39.5636 15.7608 39.6722C15.7198 39.7562 15.7021 39.8488 15.7093 39.9429C15.7201 40.0848 15.7867 40.2139 15.8963 40.3065C15.9955 40.3901 16.1186 40.435 16.2478 40.435C16.2618 40.435 16.2756 40.4343 16.2898 40.4333C16.6218 40.4085 16.9478 40.3294 17.348 40.1768C17.638 40.0638 17.9343 39.9214 18.2543 39.741C18.7547 39.4577 19.2627 39.1159 19.8525 38.6646C20.3147 38.3102 20.79 37.9152 21.3051 37.4578C21.7443 37.0671 22.1924 36.6492 22.6741 36.1797C23.5016 35.3727 24.3463 34.4945 25.2568 33.4954C25.6697 33.0417 26.0853 32.5749 26.4914 32.1082C26.6667 31.9065 26.8591 31.6836 27.0967 31.4064L27.3274 31.1346L27.6945 30.6814L29.9962 27.7991C30.2975 27.4219 30.5971 27.0484 30.8925 26.6793L30.9151 26.7675L31.2863 28.22L31.5233 29.1432L33.4945 37.6266C33.5132 37.7 33.5805 37.7517 33.6574 37.7517H37.4468C37.5179 37.7517 37.5812 37.7074 37.6051 37.6416L39.7031 31.0783C39.7194 31.0332 39.7152 30.983 39.6909 30.9414C39.2071 30.102 38.375 29.5281 37.4081 29.3661L33.6202 28.7336L37.4081 28.1004C38.7686 27.873 39.8377 26.8206 40.0687 25.4815L40.7118 21.7532L41.3549 25.4806C41.3595 25.5084 41.3647 25.5355 41.3698 25.563C41.3843 25.6361 41.4466 25.6907 41.5223 25.6964C41.5974 25.702 41.6674 25.6575 41.6931 25.5871L44.9652 16.5588L45.5428 14.9638L46.7856 11.5356C47.4374 9.75797 48.2112 8.37997 49.086 7.43964C49.9503 6.50996 50.9845 5.93707 52.1604 5.73672C52.2412 5.72278 52.2998 5.65417 52.2998 5.57375V3.45038C52.5397 3.31788 52.7609 3.20735 52.974 3.11446C53.2637 2.988 53.5181 2.90189 53.7507 2.85088C53.8839 2.82214 54.0024 2.80684 54.105 2.80544C54.2036 2.80312 54.2941 2.81534 54.3522 2.83804C54.4047 2.85907 54.4201 2.87779 54.4337 2.89987C54.4433 2.91675 54.4705 2.97424 54.4711 3.08291C54.4732 3.17353 54.459 3.28063 54.4292 3.40214C54.4023 3.51313 54.3619 3.63477 54.3095 3.76308C54.2168 3.98989 54.091 4.22994 53.925 4.49631C53.6521 4.93192 53.3079 5.37822 52.8733 5.86038L52.8105 5.90056V5.93707C52.7449 6.0329 52.7132 6.14635 52.7201 6.26383C52.7285 6.40576 52.7925 6.53608 52.9005 6.63068C53.1231 6.82546 53.4653 6.80614 53.6638 6.58709C54.1487 6.0513 54.5354 5.54996 54.8465 5.05419C55.0472 4.73158 55.1955 4.44728 55.3128 4.16052C55.3469 4.07766 55.378 3.99405 55.4052 3.91259C55.4362 3.81952 55.4612 3.73359 55.4808 3.65072C55.5297 3.4496 55.5531 3.27274 55.5531 3.0979C55.5531 3.08633 55.5531 3.07472 55.5526 3.06314Z" fill="#60676B"/>
</svg>
